<?xml version="1.0" standalone="no"?>
<!DOCTYPE svg PUBLIC "-//W3C//DTD SVG 20010904//EN"
 "http://www.w3.org/TR/2001/REC-SVG-20010904/DTD/svg10.dtd">
<svg version="1.0" xmlns="http://www.w3.org/2000/svg"
 width="515.000000pt" height="515.000000pt" viewBox="0 0 515.000000 515.000000"
 preserveAspectRatio="xMidYMid meet">
<metadata>
Created by potrace 1.11, written by Peter Selinger 2001-2013
</metadata>
<g transform="translate(0.000000,515.000000) scale(0.100000,-0.100000)"
fill="#000000" stroke="none">
<path d="M10 2575 l0 -2575 540 0 540 0 0 1458 c0 1335 -8 1971 -26 2145 -8
82 5 88 41 17 33 -64 116 -203 223 -370 l87 -134 3 -1558 2 -1558 185 0 185 0
2 1260 3 1259 815 -1259 815 -1260 573 0 572 0 0 2575 0 2575 -535 0 -535 0 0
-1497 c1 -1361 7 -1882 26 -2015 4 -32 3 -48 -4 -48 -6 0 -43 55 -83 123 -39
67 -551 868 -1137 1780 l-1065 1657 -613 0 -614 0 0 -2575z"/>
<path d="M1603 5098 c114 -178 179 -278 183 -278 2 0 4 74 4 165 l0 165 -110
0 -111 0 34 -52z"/>
<path d="M2920 4097 l0 -1052 160 -249 c88 -137 162 -251 165 -254 3 -3 5 583
5 1301 l0 1307 -165 0 -165 0 0 -1053z"/>
<path d="M4900 470 l0 -470 115 0 115 0 0 470 0 470 -115 0 -115 0 0 -470z"/>
</g>
</svg>
